# xmcd CD database file
#
# Track frame offsets:
#	150
#	14768
#	23541
#	41482
#	55407
#	69581
#	85960
#	97728
#
# Disc length: 1498 seconds
#
# Revision: 0
# Processed by: cddbd v1.5.2PL0 Copyright (c) Steve Scherf et al.
# Submitted via: CDex 1.79
#
DISCID=5d05d808
DTITLE=Tim Foust - The Way the Story Goes
DYEAR=2010
DGENRE=Country
TTITLE0=The Way the Story Goes
TTITLE1=The Best That I Could Do
TTITLE2=A Thousand Times
TTITLE3=You're So Yesterday
TTITLE4=Why?
TTITLE5=I've Seen
TTITLE6=Champagne Taste (On a Beer Budget)
TTITLE7=Can't Help Falling in Love
EXTD=YEAR: 2010
EXTT0=
EXTT1=
EXTT2=
EXTT3=
EXTT4=
EXTT5=
EXTT6=
EXTT7=
PLAYORDER=
